<svg width="20" height="20" viewBox="0 0 20 20" fill="none" xmlns="http://www.w3.org/2000/svg">
<path d="M14.5864 1.12082C15.2711 1.50572 16.1662 3.12489 14.2414 6.54925C16.2676 8.28907 19.5414 11.8717 19.1653 13.8234C18.7893 15.7751 17.1261 15.318 16.8978 15.1897L11.5466 11.3434C10.42 12.8131 7.87591 15.9495 6.71205 16.7373C7.2686 17.3505 8.30471 18.714 7.99673 19.2619C7.68875 19.8098 6.24201 19.1769 5.55714 18.7919C5.40027 19.071 4.97702 19.3558 4.42902 19.0478L4.43341 19.0401C3.91057 18.7307 3.99494 18.2265 4.12628 17.9929C3.4414 17.6079 2.14865 16.701 2.45663 16.1531C2.76461 15.6052 4.468 15.7816 5.28119 15.9383C5.34925 14.5345 6.70622 10.7308 7.3762 9.00446L1.0485 6.24379C0.820207 6.11547 -0.174533 5.12064 1.2973 3.78492C2.76913 2.4492 7.53145 3.38369 10.071 4.21035C11.9817 0.811257 13.8886 0.745145 14.5864 1.12082Z" fill="#5B9DFF"/>
</svg>
