<svg width="169" height="170" viewBox="0 0 169 170" fill="none" xmlns="http://www.w3.org/2000/svg">
<path fill-rule="evenodd" clip-rule="evenodd" d="M11.1992 11.2187C21.7109 0.71875 42.7109 0.71875 84.6641 0.71875C126.617 0.71875 147.617 0.71875 158.129 11.2187C168.664 21.7421 168.664 42.8124 168.664 85C168.664 127.188 168.664 148.258 158.129 158.781C147.617 169.281 126.617 169.281 84.6641 169.281C42.7109 169.281 21.7109 169.281 11.1992 158.781C0.664062 148.258 0.664062 127.188 0.664062 85C0.664062 42.8124 0.664062 21.7421 11.1992 11.2187ZM128.876 66.7726C128.539 59.6907 126.91 53.4177 121.685 48.2493C116.48 43.081 110.163 41.4634 103.031 41.1083C95.6802 40.694 73.6487 40.694 66.2983 41.1083C59.1862 41.4437 52.8688 43.0612 47.6441 48.2296C42.4193 53.3979 40.8101 59.671 40.4525 66.7528C40.0354 74.0517 40.0354 95.9284 40.4525 103.227C40.7903 110.309 42.4193 116.582 47.6441 121.75C52.8688 126.919 59.1664 128.536 66.2983 128.892C73.6487 129.306 95.6802 129.306 103.031 128.892C110.163 128.556 116.48 126.939 121.685 121.75C126.89 116.582 128.519 110.309 128.876 103.227C129.294 95.9284 129.294 74.0714 128.876 66.7726Z" fill="white"/>
<path d="M113.705 61.9997C113.705 65.0411 111.24 67.5066 108.198 67.5066C105.157 67.5066 102.691 65.0411 102.691 61.9997C102.691 58.9584 105.157 56.4929 108.198 56.4929C111.24 56.4929 113.705 58.9584 113.705 61.9997Z" fill="white"/>
<path d="M108.198 85.8245C108.198 98.9569 97.5523 109.603 84.4199 109.603C71.2875 109.603 60.6416 98.9569 60.6416 85.8245C60.6416 72.6921 71.2875 62.0461 84.4199 62.0461C97.5523 62.0461 108.198 72.6921 108.198 85.8245Z" fill="white"/>
</svg>
