<svg width="21" height="12" viewBox="0 0 21 12" fill="none" xmlns="http://www.w3.org/2000/svg">
<path d="M4.36155 12C3.4374 12 2.60341 11.8579 1.85958 11.5738C1.11575 11.2787 0.495887 10.8525 0 10.2951L2.14696 7.83606C2.46253 8.20765 2.77246 8.4918 3.07675 8.68852C3.38105 8.87432 3.69661 8.96721 4.02345 8.96721C4.87998 8.96721 5.30824 8.4918 5.30824 7.54098V3.18033H1.2848V0.262295H9.24716V7.31148C9.24716 8.88525 8.83017 10.0601 7.99618 10.8361C7.16218 11.612 5.95064 12 4.36155 12Z" fill="#FBFF2F"/>
<path d="M15.4889 12C14.4971 12 13.5392 11.8907 12.615 11.6721C11.6908 11.4536 10.9301 11.1694 10.3328 10.8197L11.6176 8C12.1811 8.31694 12.8066 8.57377 13.4941 8.77049C14.1928 8.95628 14.869 9.04918 15.5227 9.04918C15.9059 9.04918 16.2045 9.02732 16.4187 8.98361C16.6441 8.92896 16.8075 8.85792 16.9089 8.77049C17.0104 8.67213 17.0611 8.55738 17.0611 8.42623C17.0611 8.21858 16.9427 8.05464 16.7061 7.93443C16.4694 7.81421 16.1538 7.71585 15.7594 7.63934C15.3762 7.55191 14.9536 7.46448 14.4915 7.37705C14.0294 7.27869 13.5617 7.153 13.0883 7C12.6263 6.84699 12.198 6.64481 11.8036 6.39344C11.4204 6.14208 11.1104 5.81421 10.8738 5.40984C10.6371 4.99453 10.5188 4.48087 10.5188 3.86885C10.5188 3.15847 10.7216 2.51366 11.1273 1.93443C11.5443 1.34426 12.1586 0.874317 12.97 0.52459C13.7927 0.174863 14.8127 0 16.0299 0C16.83 0 17.619 0.0819671 18.3966 0.245901C19.1742 0.409836 19.873 0.661202 20.4928 1L19.2926 3.80328C18.7065 3.51913 18.1374 3.30601 17.5851 3.16393C17.0442 3.02186 16.5145 2.95082 15.9961 2.95082C15.6129 2.95082 15.3086 2.98361 15.0832 3.04918C14.8578 3.11475 14.6943 3.20219 14.5929 3.31148C14.5028 3.42076 14.4577 3.54098 14.4577 3.67213C14.4577 3.86885 14.576 4.02732 14.8127 4.14754C15.0494 4.25683 15.3593 4.34973 15.7425 4.42623C16.1369 4.50273 16.5652 4.5847 17.0273 4.67213C17.5006 4.75956 17.9683 4.87978 18.4304 5.03279C18.8925 5.18579 19.3151 5.38798 19.6983 5.63934C20.0928 5.89071 20.4083 6.21858 20.645 6.62295C20.8817 7.02732 21 7.53005 21 8.13115C21 8.8306 20.7915 9.47541 20.3745 10.0656C19.9688 10.6448 19.3602 11.1148 18.5487 11.4754C17.7373 11.8251 16.7173 12 15.4889 12Z" fill="#FBFF2F"/>
</svg>
