<svg xmlns="http://www.w3.org/2000/svg" viewBox="0 0 21.15 22.94">
    <g id="Слой_2" data-name="Слой 2">
        <g id="Слой_1-2" data-name="Слой 1">
            <g id="skull">
                <path id="sk"
                      d="M2,19.09c1.84.48,1.35.7,1.48,1.08a.65.65,0,0,0,.5.46c.26.06.73.17,1.51.39,1.52.44,2.28.34,2.58-.67,0,0-.39,1.24.41,1.37a10.05,10.05,0,0,1,3.44,1.07c1,.66,1-1.12,2.18-1.23s4,.55,4.91-.87,2.89-5.82,1.89-9.62A3.53,3.53,0,0,0,19,9.2C11,5.25,5.55,5.85,5.55,5.85A4.31,4.31,0,0,0,3,6.36C1.51,7.11.68,10,.18,13.45S.2,18.63,2,19.09Zm9.85-5.43c-.05-1.66,1.8-2.41,3.59-2.84a3.57,3.57,0,0,1,3.05.73,2.36,2.36,0,0,1,.45,1c.19,1.1.4,3-.58,4.09s-2.64,1-4.21.69S11.88,15.33,11.82,13.66ZM7.88,16.87a.3.3,0,0,1,.21-.51,3.72,3.72,0,0,1,.74.06,3.18,3.18,0,0,1,1,.31.3.3,0,0,1-.05.55,2.71,2.71,0,0,0-.59.28.6.6,0,0,1-.82-.13A5.51,5.51,0,0,0,7.88,16.87ZM2.15,10.26C2.62,9.07,3.43,7.6,4.62,8.09c0,0,3.65.37,3.58,3.23,0,1.22-1.55,4-2.46,3.93a3.77,3.77,0,0,1-3.15-1.42A3.9,3.9,0,0,1,2.15,10.26Z"/>
                <path id="king"
                      d="M12.06,1.24a.17.17,0,0,1-.21,0L10.66.05a.18.18,0,0,0-.3.17L11,3.07a.18.18,0,0,0,.12.13L14.8,4.31a.18.18,0,0,0,.17,0l2.12-2A.18.18,0,0,0,16.94,2l-1.64.31a.2.2,0,0,1-.19-.1L14.22.32a.28.28,0,0,0-.4-.12Z"/>
            </g>
        </g>
    </g>
</svg>