<svg xmlns="http://www.w3.org/2000/svg" width="169" height="170" viewBox="0 0 169 170" fill="none">
    <path fill-rule="evenodd" clip-rule="evenodd"
          d="M10.6851 11.2188C21.1967 0.71875 42.1967 0.71875 84.1499 0.71875C126.103 0.71875 147.103 0.71875 157.615 11.2188C168.15 21.7421 168.15 42.8124 168.15 85C168.15 127.188 168.15 148.258 157.615 158.781C147.103 169.281 122.252 169.281 80.2991 169.281C38.3459 169.281 21.1967 169.281 10.6851 158.781C0.149902 148.258 0.149902 127.188 0.149902 85C0.149902 42.8124 0.149902 21.7421 10.6851 11.2188ZM113.409 114.595C116.193 99.6688 121.663 67.3283 122.927 54.0013C123.004 52.8928 122.957 51.7792 122.786 50.6814C122.686 49.7972 122.26 48.9827 121.59 48.399C120.584 47.5796 119.03 47.407 118.335 47.4185C115.176 47.4749 110.329 49.166 87.001 58.9015C78.8308 62.3117 62.5019 69.3691 38.0141 80.0738C34.0376 81.6597 31.9546 83.2117 31.7649 84.7296C31.4444 87.2946 34.6458 88.3045 39.0052 89.6798C39.5981 89.8668 40.2125 90.0606 40.8423 90.266C45.1314 91.6652 50.9006 93.3015 53.8999 93.3664C56.6206 93.4253 59.657 92.3 63.0091 89.9904C85.889 74.4944 97.6996 66.6619 98.4409 66.4929C98.9642 66.3743 99.6877 66.2265 100.18 66.6629C100.673 67.0992 100.623 67.9301 100.571 68.1527C100.254 69.5093 87.6867 81.232 81.1838 87.2979C79.157 89.1885 77.7193 90.5296 77.4253 90.8359C76.7662 91.5232 76.0944 92.1732 75.4488 92.7978C71.4652 96.6521 68.4792 99.5411 75.6159 104.26C79.0476 106.529 81.7934 108.405 84.5328 110.277C87.5223 112.319 90.5043 114.357 94.3621 116.894C95.3452 117.541 96.2841 118.212 97.1985 118.866C100.679 121.356 103.806 123.593 107.669 123.236C109.913 123.029 112.232 120.911 113.409 114.595Z"
          fill="white"/>
</svg>
