<svg width="169" height="170" viewBox="0 0 169 170" fill="none" xmlns="http://www.w3.org/2000/svg">
<path d="M105.771 100.365C104.853 102.953 100.456 105.29 98.341 105.596C94.8346 106.125 92.1075 105.847 85.1227 102.841C74.8778 98.4026 67.9114 88.5079 66.5091 86.5162C66.3992 86.3601 66.3235 86.2526 66.2831 86.2C65.7265 85.4764 61.7749 80.2169 61.7749 74.7905C61.7749 69.6829 64.2896 67.016 65.4437 65.792C65.5157 65.7156 65.5825 65.6448 65.643 65.5793C66.6448 64.4663 67.8414 64.188 68.5928 64.188C69.3163 64.188 70.0677 64.188 70.7077 64.2158C70.7822 64.2189 70.8598 64.2183 70.9401 64.2175C71.58 64.2117 72.3932 64.2043 73.1844 66.1082C73.5176 66.9058 74.0193 68.1284 74.5367 69.3892L74.5421 69.4023C75.4491 71.6124 76.4025 73.9357 76.5794 74.2896C76.8577 74.8462 77.0525 75.4862 76.6629 76.2097C75.7212 78.0931 74.7518 79.1049 74.067 79.8197C73.2137 80.7102 72.802 81.14 73.4349 82.2206C77.6926 89.5393 81.9502 92.0717 88.4342 95.3276C89.5473 95.8842 90.1874 95.8007 90.8274 95.0493C91.4675 94.3258 93.5824 91.8213 94.3059 90.736C95.0294 89.6228 95.7808 89.8176 96.7826 90.1794C97.7844 90.5411 103.211 93.2126 104.324 93.7693C104.535 93.8746 104.732 93.97 104.914 94.0585C105.695 94.4371 106.213 94.6884 106.439 95.0493C106.689 95.578 106.689 97.8043 105.771 100.365Z" fill="white"/>
<path fill-rule="evenodd" clip-rule="evenodd" d="M84.1782 0.71875C42.225 0.71875 21.225 0.71875 10.7134 11.2188C0.178223 21.7421 0.178223 42.8124 0.178223 85C0.178223 127.188 0.178223 148.258 10.7134 158.781C21.225 169.281 42.225 169.281 84.1782 169.281C126.131 169.281 147.131 169.281 157.643 158.781C168.178 148.258 168.178 127.188 168.178 85C168.178 42.8124 168.178 21.7421 157.643 11.2188C147.131 0.71875 126.131 0.71875 84.1782 0.71875ZM63.0567 123.052C69.485 126.558 76.7481 128.423 84.1504 128.423C108.472 128.423 128.703 108.637 128.703 84.3152C128.703 72.5161 123.694 61.4406 115.373 53.0922C107.025 44.7438 95.9495 40.1521 84.1504 40.1521C59.8287 40.1521 40.0429 59.9379 40.0151 84.2595C40.0151 92.0514 42.0465 99.6484 45.9146 106.327L39.6533 129.202L63.0567 123.052Z" fill="white"/>
</svg>
